<?xml version="1.0" encoding="utf-8"?>
<!-- Generator: Adobe Illustrator 15.0.0, SVG Export Plug-In . SVG Version: 6.00 Build 0)  -->
<!DOCTYPE svg PUBLIC "-//W3C//DTD SVG 1.1//EN" "http://www.w3.org/Graphics/SVG/1.1/DTD/svg11.dtd">
<svg version="1.1" xmlns="http://www.w3.org/2000/svg" xmlns:xlink="http://www.w3.org/1999/xlink" x="0px" y="0px" width="612px"
	 height="792px" viewBox="0 0 612 792" enable-background="new 0 0 612 792" xml:space="preserve">
<g id="Capa_1" display="none">
	<g display="inline">
		<path fill-rule="evenodd" clip-rule="evenodd" fill="#DDDCDC" d="M2661.652-1163.589c41.667,0,83.333,0,125,0
			c261.673,10.769,488.355,55.521,689,129c66.631,24.401,130.119,50.949,193,79c187.678,83.724,352.27,193.06,500,317
			c245.293,205.792,446.617,462.708,592,769c117.33,247.191,197.061,532.8,213,876c0,53,0,106,0,159
			c-3.738,32.012-3.566,67.393-6,99c-17.3,224.738-65.607,420.145-131,599c-73.458,200.918-172.912,381.469-291,544
			c-234.273,322.447-541.958,572.688-926,744c-95.711,42.695-199.42,78.121-309,108c-110.256,30.064-227.603,52.771-353,65
			c-194.12,18.932-409.889,13.963-586-16c-60.617-10.313-119.285-20.887-175-34c-222.285-52.316-419.297-134.225-597-238
			c-262.803-153.473-486.069-350.855-666-586c-60.516-79.086-115.245-162.559-166-251c-101.256-176.441-181.853-373.188-235-600
			c-39.432-168.279-61.179-357.797-58-566c1.02-66.74,5.659-132.941,13-196c29.07-249.713,91.548-464.861,176-659
			c41.253-94.833,90.395-186.964,145-272c54.915-85.518,110.344-168.378,173-245c125.524-153.502,271.418-288.065,431-404
			c162.078-117.748,344.039-214.431,547-288C2164.494-1104.84,2395.133-1153.85,2661.652-1163.589z M2413.652-1139.589
			c-247.222,32.75-458.99,102.482-650,193c-255.684,121.166-468.237,279.964-655,470c-92.902,94.531-177.021,198.031-252,310
			c-74.041,110.568-141.345,232.679-198,365c-54.75,127.872-103.227,268.742-136,426c-47.759,229.166-61.316,520.957-26,772
			c34.51,245.309,102.049,459.355,194,649c61.939,127.748,128.402,246.369,208,354c159.068,215.09,347.242,402.49,572,553
			c224.371,150.252,481.16,269.596,790,335c157.207,33.293,329.186,50.67,514,47c354.99-7.049,655.826-95.945,909-215
			c256.947-120.828,468.765-279.734,655-470c184.445-188.436,338.825-411.984,451-674c55.85-130.451,102.876-271.727,135-427
			c32.233-155.801,52.227-328.063,47-516c-9.838-353.781-95.554-655.796-216-908c-92.214-193.087-201.408-360.569-333-510
			c-88.048-99.984-181.848-191.595-286-277c-51.247-42.023-106.289-83.324-162-119c-115.259-73.809-232.132-141.566-365-198
			c-129.987-55.211-270.214-101.866-427-135c-151.6-32.039-334.996-52.761-509-46
			C2582.134-1157.033,2496.834-1150.609,2413.652-1139.589z"/>
		<path fill-rule="evenodd" clip-rule="evenodd" fill="#BBB9B9" d="M2673.652-1160.589c174.004-6.761,357.4,13.961,509,46
			c156.786,33.134,297.013,79.789,427,135c132.868,56.434,249.741,124.191,365,198c55.711,35.676,110.753,76.977,162,119
			c104.152,85.405,197.952,177.016,286,277c131.592,149.431,240.786,316.913,333,510c120.446,252.203,206.162,554.218,216,908
			c5.227,187.938-14.767,360.199-47,516c-32.124,155.273-79.15,296.549-135,427c-112.175,262.016-266.555,485.564-451,674
			c-186.235,190.266-398.053,349.172-655,470c-253.174,119.055-554.01,207.951-909,215c-184.814,3.67-356.793-13.707-514-47
			c-308.84-65.404-565.629-184.748-790-335c-224.758-150.51-412.932-337.91-572-553c-79.598-107.631-146.061-226.252-208-354
			c-91.951-189.645-159.49-403.691-194-649c-35.316-251.043-21.759-542.834,26-772c32.773-157.258,81.25-298.128,136-426
			c56.655-132.321,123.959-254.432,198-365c74.979-111.969,159.098-215.469,252-310c186.763-190.036,399.316-348.834,655-470
			c191.01-90.518,402.778-160.25,650-193C2496.834-1150.609,2582.134-1157.033,2673.652-1160.589z M1828.652,2530.41
			c11.602,0.123,17.818,2.188,27,7c101.359,53.131,220.679,102.318,339,136c141.406,40.254,295.859,64.947,469,73
			c90.296,4.201,177.689-3.305,259-12c81.072-8.668,158.467-22.654,232-40c284.15-67.029,529.306-201.742,723-361
			c99.13-81.506,188.617-172.547,267-275c78.621-102.764,150.46-213.988,205-338c82.306-187.143,144.014-404.582,144-669
			c-0.014-265.324-61.596-484.277-144-669c-111.35-249.606-273.462-448.221-472-613c-198.082-164.4-432.368-291.411-723-361
			c-178.11-42.646-416.563-69.313-631-43c-45.061,5.529-88.771,9.11-131,17c-248.592,46.444-460.373,127.659-643,242
			c-241.246,151.042-443.396,345.706-588,593c-72.293,123.631-134.481,259.99-175,415c-40.139,153.561-65.777,334.174-50,532
			c28.053,351.744,144.265,619.521,304,840c5.155,7.117,13.885,17.221,15,22c3.811,16.332,0,41.432,0,62
			c0,147.012-0.827,295.088,1,436c0.221,0.779,0.838,1.164,2,1C1458.523,2528.16,1637.869,2528.396,1828.652,2530.41z"/>
		<path fill-rule="evenodd" clip-rule="evenodd" fill="#64635F" d="M1258.652,2525.41c-1.162,0.164-1.779-0.221-2-1
			c-1.827-140.912-1-288.988-1-436c0-20.568,3.811-45.668,0-62c-1.115-4.779-9.845-14.883-15-22
			c-159.735-220.479-275.947-488.256-304-840c-15.777-197.826,9.861-378.439,50-532c40.519-155.01,102.707-291.369,175-415
			c144.604-247.294,346.754-441.958,588-593c182.627-114.341,394.408-195.556,643-242c42.229-7.89,85.939-11.471,131-17
			c214.437-26.313,452.89,0.354,631,43c290.632,69.589,524.918,196.6,723,361c198.538,164.779,360.65,363.394,472,613
			c82.404,184.722,143.986,403.675,144,669c0.014,264.418-61.694,481.857-144,669c-54.54,124.012-126.379,235.236-205,338
			c-78.383,102.453-167.87,193.494-267,275c-193.694,159.258-438.85,293.971-723,361c-73.533,17.346-150.928,31.332-232,40
			c-81.311,8.695-168.704,16.201-259,12c-173.141-8.053-327.594-32.746-469-73c-118.321-33.682-237.641-82.869-339-136
			c-9.182-4.813-15.398-6.877-27-7C1637.869,2528.396,1458.523,2528.16,1258.652,2525.41z M1789.652,2528.41
			c23.221,0,46.596-2.814,62,5c45.594,23.131,89.828,44.414,139,65c161.596,67.658,333.821,117.295,540,137
			c41.119,3.93,83.778,4.982,128,8c43.064,2.939,86.686-0.336,130-1c43.556-0.668,86.688-4.422,127-9
			c401.83-45.627,705.475-195.646,957-398c99.555-80.092,189.148-172.48,268-274c157.973-203.385,280.02-445.258,330-753
			c12.791-78.76,20.997-164.219,21-250c0.006-175.889-27-335.926-68-474c-61.984-208.739-161.065-384.281-277-536
			c-153.535-200.924-357.587-372.207-594-490c-178.958-89.166-382.282-163.138-625-188c-102.979-10.548-222.947-18.295-331-9
			c-71.032,6.11-135.404,11.565-199,23c-252.945,45.483-457.883,125.821-645,241c-120.277,74.036-232.963,159.799-330,260
			c-96.838,99.996-186.661,208.29-259,332c-141.809,242.513-251.452,553.699-225,946c24.661,365.738,154.76,628.77,319,862
			c0,165.996,0,332.002,0,498C1441.691,2524.334,1609.198,2528.408,1789.652,2528.41z"/>
		<path fill-rule="evenodd" clip-rule="evenodd" fill="#1A1717" d="M1257.652,2523.41c0-165.998,0-332.004,0-498
			c-164.24-233.23-294.339-496.262-319-862c-26.452-392.301,83.191-703.486,225-946c72.339-123.71,162.162-232.004,259-332
			c97.037-100.201,209.723-185.964,330-260c187.117-115.179,392.055-195.517,645-241c63.596-11.435,127.968-16.89,199-23
			c108.053-9.295,228.021-1.548,331,9c242.718,24.862,446.042,98.834,625,188c236.413,117.793,440.465,289.076,594,490
			c115.935,151.718,215.016,327.26,277,536c41,138.074,68.006,298.111,68,474c-0.003,85.781-8.209,171.24-21,250
			c-49.98,307.742-172.027,549.615-330,753c-78.852,101.52-168.445,193.908-268,274c-251.525,202.354-555.17,352.373-957,398
			c-40.313,4.578-83.444,8.332-127,9c-43.314,0.664-86.936,3.939-130,1c-44.222-3.018-86.881-4.07-128-8
			c-206.179-19.705-378.404-69.342-540-137c-49.172-20.586-93.406-41.869-139-65c-15.404-7.814-38.779-5-62-5
			C1609.198,2528.408,1441.691,2524.334,1257.652,2523.41z M2240.652,811.41c-3.789,6.086-7.987,18.264-11,28
			c-45.846,148.168-99.533,295.434-148,437c-47.915-154.748-93.913-311.422-143-465c-60.679-1.664-128.322-1.664-189,0
			c-51.185,160.814-98.474,325.529-150,486c-51.38-160.957-98.777-325.887-151-486c-61.011-1.664-128.988-1.664-190,0
			c80.498,246.182,163.759,489.564,247,733c63,0,126,0,189,0c47.057-150.289,94.378-305.781,140-456c2.965-9.762,4.725-20.584,11-29
			c49.003,162.996,98.293,325.709,149,487c62.335,1.668,131.664,1.664,194,0c70.938-213.471,144.256-430.205,213-644
			c9.881-30.729,21.801-60.688,29-92C2369.969,809.408,2299.67,807.418,2240.652,811.41z M2495.652,812.41
			c0.666,243.338-1.333,489.33,1,731c153.464,1.83,315.41,1.002,469,1c51.605,0,97.547-4.572,141-16
			c80.793-21.248,145.828-63.9,195-119c49.195-55.127,83.001-129.248,83-231c-0.001-98.729-33.664-176.777-81-232
			c-49.123-57.307-113.041-97.271-195-119c-85.864-22.762-188.946-17.994-296-18c-104.521-0.004-209.793,0.004-314,0
			C2497.212,809.971,2496.213,810.971,2495.652,812.41z M3355.652,814.41c0.659,52.008-1.324,106.658,1,157
			c108.332,0.666,219.334-1.332,326,1c2.333,187.996,0.334,380.336,1,570c55.336,2.33,114.998,0.336,172,1
			c2.999-188.004-0.999-382.996,2-571c106.334-2.998,219.665,0.998,326-2c1.666-50.34,1.666-107.66,0-158
			c-272.992-2.332-550.339-0.332-825-1C3357.212,811.971,3356.212,812.971,3355.652,814.41z"/>
		<path fill-rule="evenodd" clip-rule="evenodd" fill="#64635F" d="M2430.652,810.41c-7.199,31.313-19.119,61.271-29,92
			c-68.744,213.795-142.063,430.529-213,644c-62.336,1.664-131.665,1.668-194,0c-50.707-161.291-99.997-324.004-149-487
			c-6.275,8.416-8.035,19.238-11,29c-45.622,150.219-92.943,305.711-140,456c-63,0-126,0-189,0
			c-83.241-243.436-166.502-486.818-247-733c61.012-1.664,128.989-1.664,190,0c52.223,160.113,99.62,325.043,151,486
			c51.526-160.471,98.815-325.186,150-486c60.678-1.664,128.321-1.664,189,0c49.087,153.578,95.085,310.252,143,465
			c48.467-141.566,102.154-288.832,148-437c3.013-9.736,7.211-21.914,11-28C2299.67,807.418,2369.969,809.408,2430.652,810.41z
			 M1506.652,1542.41c62.333,0,124.666,0,187,0c51.026-161.311,98.784-325.881,150-487c9.744,18.709,14.148,39.875,20,60
			c5.944,20.445,12.737,40.57,19,61c37.597,122.648,74.196,247.68,114,368c61.002,1.668,128.998,1.664,190,0
			c63.645-180.801,119.872-367.176,182-549c20.773-60.795,41.287-121.656,59-183c-62,0-124,0-186,0
			c-49.013,146.656-98.33,294.896-148,440c-3.16,9.232-5.322,20.195-12,28c-49.561-154.771-94.416-314.25-145-468
			c-61.667,0-123.333,0-185,0c-47.037,150.801-96.482,308.564-142,459c-3.059,10.111-3.17,21.988-11,30
			c-42.818-142.506-89.639-286.938-132-428c-6.076-20.234-10.525-41.158-20-60c-59.67-1.668-126.33-1.664-186,0
			C1341.522,1057.529,1423.85,1300.223,1506.652,1542.41z"/>
		<path fill-rule="evenodd" clip-rule="evenodd" fill="#64635F" d="M2498.652,809.41c104.207,0.004,209.479-0.004,314,0
			c107.054,0.006,210.136-4.762,296,18c81.959,21.729,145.877,61.693,195,119c47.336,55.223,80.999,133.271,81,232
			c0.001,101.752-33.805,175.873-83,231c-49.172,55.1-114.207,97.752-195,119c-43.453,11.428-89.395,16-141,16
			c-153.59,0.002-315.536,0.83-469-1c-2.333-241.67-0.334-487.662-1-731C2496.213,810.971,2497.212,809.971,2498.652,809.41z
			 M3010.652,813.41c-166.721-4.607-341.959-0.709-512-2c-2.333,241.332-0.334,487-1,730c166.798,1.836,334.141,1,495,1
			c77.581,0,145.396-19.762,199-49c103.217-56.301,190.175-152.264,191-306c0.409-76.154-18.291-145.752-50-198
			c-62.469-102.932-169.42-164.121-321-176C3011.319,813.41,3010.985,813.41,3010.652,813.41z"/>
		<path fill-rule="evenodd" clip-rule="evenodd" fill="#64635F" d="M3358.652,811.41c274.661,0.668,552.008-1.332,825,1
			c1.666,50.34,1.666,107.66,0,158c-106.335,2.998-219.666-0.998-326,2c-2.999,188.004,0.999,382.996-2,571
			c-57.002-0.664-116.664,1.33-172-1c-0.666-189.664,1.333-382.004-1-570c-106.666-2.332-217.668-0.334-326-1
			c-2.324-50.342-0.341-104.992-1-157C3356.212,812.971,3357.212,811.971,3358.652,811.41z M3356.652,816.41
			c0.659,50.674-1.323,103.99,1,153c108.344,1.324,221.987-2.654,327,2c0.666,189.662-1.332,382.002,1,570
			c54.014,1.664,114.986,1.664,169,0c1.324-190.029-2.654-384.824,2-571c106.667-2.33,217.666-0.334,326-1c0-52,0-104,0-156
			c-274.67,0-549.33,0-824,0C3357.396,813.82,3356.608,814.699,3356.652,816.41z"/>
		<path fill-rule="evenodd" clip-rule="evenodd" fill="#DDDCDC" d="M3010.652,813.41c0.333,0,0.667,0,1,0c0,0.334,0,0.666,0,1
			c-168.195-2.137-340.194-0.477-510-1c-2.333,239.998-0.334,484.338-1,726c173.462,1.795,353.489,1.492,527,0
			c-171.757,3.916-354.602,2.063-528,1c-1.666-239.998-1.666-487,0-727C2667.736,811.658,2842.534,811.863,3010.652,813.41z"/>
		<path fill-rule="evenodd" clip-rule="evenodd" fill="#FFFFFF" d="M3011.652,814.41c0.333,0,0.667,0,1,0
			c10.869,3.121,26.673,3.115,39,5c38.64,5.912,73.186,14.123,105,27c124.726,50.482,205.979,144.459,223,305c0,0.334,0,0.668,0,1
			c0,20.334,0,40.668,0,61c0,0.668,0,1.334,0,2c-20.522,165.814-119.302,253.365-254,305c-0.333,0-0.667,0-1,0
			c-29.566,8.768-62.387,14.281-96,19c-0.333,0-0.667,0-1,0c-173.511,1.492-353.538,1.795-527,0c0.666-241.662-1.333-486.002,1-726
			C2671.458,813.934,2843.457,812.273,3011.652,814.41z M3201.652,1203.41c7.381-128.885-57.458-202.607-156-228
			c-53.777-13.857-120.025-8.004-185-8c-65.164,0.004-130.524-0.826-192,1c-1.666,136.666-1.666,280.334,0,417
			c62.358,1.822,130.349,1,197,1c65.629,0,135.449,5.025,190-8c0.333,0,0.667,0,1,0c82.095-24.236,134.521-78.145,145-174
			C3201.652,1204.078,3201.652,1203.744,3201.652,1203.41z"/>
		<path fill-rule="evenodd" clip-rule="evenodd" fill="#3197CA" d="M3358.652,813.41c274.67,0,549.33,0,824,0c0,52,0,104,0,156
			c-108.334,0.666-219.333-1.33-326,1c-4.654,186.176-0.676,380.971-2,571c-54.014,1.664-114.986,1.664-169,0
			c-2.332-187.998-0.334-380.338-1-570c-105.013-4.654-218.656-0.676-327-2c-2.323-49.01-0.341-102.326-1-153
			C3356.608,814.699,3357.396,813.82,3358.652,813.41z"/>
		<path fill-rule="evenodd" clip-rule="evenodd" fill="#64635F" d="M2670.652,1383.41c-1.666-135.334-1.666-277.666,0-413
			c57.48-1.822,117.662-1.004,178-1c59.714,0.004,121.204-5.178,175,4c105.311,17.967,184.986,93.293,177,225
			c-3.32,54.758-24.187,96.186-54,126c-28.889,28.889-68.041,52.1-121,58c-54.906,6.119-115.594,2-177,2
			C2790.152,1384.41,2730.42,1385.244,2670.652,1383.41z M2671.652,974.41c0.666,135.666-1.332,274,1,408c58.811,0,117.631,0,176,0
			c58.851,0,118.868,4.762,176-1c77.884-7.855,135.541-57.92,160-117c29.847-72.096,11.373-169.148-30-218
			c-21.353-25.211-48.407-45.297-81-58c-34.105-13.291-75.26-17.002-122-17c-88.617,0.006-182.894-0.004-278,0
			C2672.247,971.672,2672.512,973.604,2671.652,974.41z"/>
		<path fill-rule="evenodd" clip-rule="evenodd" fill="#1A1717" d="M2673.652,971.41c95.106-0.004,189.383,0.006,278,0
			c46.74-0.002,87.895,3.709,122,17c32.593,12.703,59.647,32.789,81,58c41.373,48.852,59.847,145.904,30,218
			c-24.459,59.08-82.116,109.145-160,117c-57.132,5.762-117.149,1-176,1c-58.369,0-117.189,0-176,0c-2.332-134-0.334-272.334-1-408
			C2672.512,973.604,2672.247,971.672,2673.652,971.41z"/>
		<path fill-rule="evenodd" clip-rule="evenodd" fill="#DDDCDC" d="M3379.652,1152.41c1.848,20.041,2.02,41.188,0,61
			C3379.652,1193.078,3379.652,1172.744,3379.652,1152.41z"/>
		<path fill-rule="evenodd" clip-rule="evenodd" fill="#BBB9B9" d="M3011.652,813.41c151.58,11.879,258.531,73.068,321,176
			c31.709,52.248,50.409,121.846,50,198c-0.825,153.736-87.783,249.699-191,306c-53.604,29.238-121.419,49-199,49
			c-160.859,0-328.202,0.836-495-1c0.666-243-1.333-488.668,1-730c170.041,1.291,345.279-2.607,512,2
			c-168.118-1.547-342.916-1.752-511,0c-1.666,240-1.666,487.002,0,727c173.398,1.063,356.243,2.916,528-1c0.333,0,0.667,0,1,0
			c35.385-2.947,67.836-8.83,96-19c0.333,0,0.667,0,1,0c135.03-49.426,235.268-138.271,254-305c0-0.666,0-1.332,0-2
			c2.02-19.813,1.848-40.959,0-61c0-0.332,0-0.666,0-1c-7.529-106.861-50.757-185.643-113-239c-62.355-53.453-146.194-91.26-254-98
			c-0.333,0-0.667,0-1,0C3011.652,814.076,3011.652,813.744,3011.652,813.41z"/>
		<path fill-rule="evenodd" clip-rule="evenodd" fill="#BBB9B9" d="M1260.652,813.41c59.67-1.664,126.33-1.668,186,0
			c9.475,18.842,13.924,39.766,20,60c42.361,141.063,89.182,285.494,132,428c7.83-8.012,7.941-19.889,11-30
			c45.518-150.436,94.963-308.199,142-459c61.667,0,123.333,0,185,0c50.584,153.75,95.439,313.229,145,468
			c6.678-7.805,8.84-18.768,12-28c49.67-145.104,98.987-293.344,148-440c62,0,124,0,186,0c-17.713,61.344-38.227,122.205-59,183
			c-62.128,181.824-118.355,368.199-182,549c-61.002,1.664-128.998,1.668-190,0c-39.804-120.32-76.403-245.352-114-368
			c-6.263-20.43-13.056-40.555-19-61c-5.852-20.125-10.256-41.291-20-60c-51.216,161.119-98.974,325.689-150,487
			c-62.334,0-124.667,0-187,0C1423.85,1300.223,1341.522,1057.529,1260.652,813.41z M1462.652,864.41
			c-4.773-17.559-10.089-34.576-16-51c-61.335,0.666-125.331-1.33-185,1c18.338,55.328,36.679,110.654,56,165
			c0.352,3.982,2.176,6.492,3,10c62.289,184.051,123.564,369.098,187,552c61.667,0,123.333,0,185,0
			c50.048-160.611,99.217-322.119,148-484c0-0.332,0-0.666,0-1c1.405-0.26,1.141-2.193,2-3c7.647,2.334,7.244,12.145,9,18
			c31.072,103.664,64.389,209.465,96,312c0,0.334,0,0.668,0,1c9.844,32.488,19.215,65.451,30,97c0,0.334,0,0.668,0,1
			c5.342,18.992,11.16,37.506,17,56c6.521-8.045,9.746-19.025,13-29c20.82-63.82,42.723-126.168,64-190
			c3.686-11.055,10.216-25.035,10-33c-0.31-11.412-7.605-23.74-11-35c-3.627-12.033-6.215-23.863-11-35c0-0.332,0-0.666,0-1
			c-7.006-23.994-13.813-48.186-22-71c0-0.332,0-0.666,0-1c-33.343-110.324-66.646-220.689-101-330c-61.334,0-122.666,0-184,0
			c-28.104,83.561-52.956,170.379-79,256c0,0.334,0,0.668,0,1c-4.52,10.814-7.816,22.852-11,35c0,0.334,0,0.668,0,1
			c-4.52,10.814-7.816,22.852-11,35c0,0.334,0,0.668,0,1c-7.512,19.156-12.801,40.533-19,61c0,0.334,0,0.668,0,1
			c-8.201,22.779-16.611,52.855-24,76c-2.446,7.662-2.718,18.178-10,23c-4.65-8.016-5.494-19.838-10-28c0-0.332,0-0.666,0-1
			c-20.734-68.266-40.948-137.051-63-204c0-0.332,0-0.666,0-1c-10.59-36.076-21.373-71.961-33-107c0-0.332,0-0.666,0-1
			c-9.967-32.033-18.968-65.031-30-96C1462.652,865.076,1462.652,864.744,1462.652,864.41z"/>
		<path fill-rule="evenodd" clip-rule="evenodd" fill="#DDDCDC" d="M3012.652,814.41c107.806,6.74,191.645,44.547,254,98
			c62.243,53.357,105.471,132.139,113,239c-17.021-160.541-98.274-254.518-223-305c-31.814-12.877-66.36-21.088-105-27
			C3039.325,817.525,3023.521,817.531,3012.652,814.41z"/>
		<path fill-rule="evenodd" clip-rule="evenodd" fill="#DDDCDC" d="M3379.652,1215.41c-18.732,166.729-118.97,255.574-254,305
			C3260.351,1468.775,3359.13,1381.225,3379.652,1215.41z"/>
		<path fill-rule="evenodd" clip-rule="evenodd" fill="#DDDCDC" d="M3124.652,1520.41c-28.164,10.17-60.615,16.053-96,19
			C3062.266,1534.691,3095.086,1529.178,3124.652,1520.41z"/>
		<path fill-rule="evenodd" clip-rule="evenodd" fill="#DDDCDC" d="M1462.652,865.41c11.032,30.969,20.033,63.967,30,96
			C1481.214,930.85,1472.151,897.912,1462.652,865.41z"/>
		<path fill-rule="evenodd" clip-rule="evenodd" fill="#DDDCDC" d="M1492.652,962.41c11.627,35.039,22.41,70.924,33,107
			C1513.61,1034.785,1502.786,998.943,1492.652,962.41z"/>
		<path fill-rule="evenodd" clip-rule="evenodd" fill="#DDDCDC" d="M1525.652,1070.41c22.052,66.949,42.266,135.734,63,204
			C1566.526,1207.535,1546.165,1138.898,1525.652,1070.41z"/>
		<path fill-rule="evenodd" clip-rule="evenodd" fill="#DDDCDC" d="M1588.652,1275.41c4.506,8.162,5.35,19.984,10,28
			c7.282-4.822,7.554-15.338,10-23c7.389-23.145,15.799-53.221,24-76c-4.593,17.193-9.688,34.863-15,52
			c-5.305,17.113-9.077,34.887-18,49C1593.009,1298.387,1591.836,1285.895,1588.652,1275.41z"/>
		<path fill-rule="evenodd" clip-rule="evenodd" fill="#DDDCDC" d="M1632.652,1203.41c6.199-20.467,11.488-41.844,19-61
			c-5.304,21.029-12.379,40.287-18,61C1633.318,1203.41,1632.986,1203.41,1632.652,1203.41z"/>
		<path fill-rule="evenodd" clip-rule="evenodd" fill="#DDDCDC" d="M1651.652,1141.41c3.184-12.148,6.48-24.186,11-35
			c-2.42,12.58-7.273,22.727-10,35C1652.318,1141.41,1651.986,1141.41,1651.652,1141.41z"/>
		<path fill-rule="evenodd" clip-rule="evenodd" fill="#DDDCDC" d="M1662.652,1105.41c3.184-12.148,6.48-24.186,11-35
			c-2.42,12.58-7.273,22.727-10,35C1663.318,1105.41,1662.986,1105.41,1662.652,1105.41z"/>
		<path fill-rule="evenodd" clip-rule="evenodd" fill="#DDDCDC" d="M1673.652,1069.41c26.044-85.621,50.896-172.439,79-256
			c61.334,0,122.666,0,184,0c34.354,109.311,67.657,219.676,101,330c-35.405-108.26-66.83-220.504-102-329
			c-60.668,0-121.333,0-182,0c-28.278,83.055-52.692,169.975-79,255C1674.318,1069.41,1673.986,1069.41,1673.652,1069.41z"/>
		<path fill-rule="evenodd" clip-rule="evenodd" fill="#DDDCDC" d="M2037.652,1144.41c8.187,22.814,14.994,47.006,22,71
			C2051.223,1192.84,2044.301,1168.762,2037.652,1144.41z"/>
		<path fill-rule="evenodd" clip-rule="evenodd" fill="#DDDCDC" d="M2059.652,1216.41c4.785,11.137,7.373,22.967,11,35
			c3.395,11.26,10.69,23.588,11,35c0.216,7.965-6.314,21.945-10,33c-21.277,63.832-43.18,126.18-64,190
			c-3.254,9.975-6.479,20.955-13,29c-5.84-18.494-11.658-37.008-17-56c6.859,16.475,11.387,35.279,17,53
			c25.002-67.379,49.953-146.369,74-218c3.487-10.387,10.766-22.727,11-31c0.318-11.229-6.485-23.619-10-35
			C2066.008,1239.609,2062.32,1228.203,2059.652,1216.41z"/>
		<path fill-rule="evenodd" clip-rule="evenodd" fill="#DDDCDC" d="M1947.652,1384.41c11.347,30.986,20.656,64.012,30,97
			C1966.867,1449.861,1957.496,1416.898,1947.652,1384.41z"/>
		<path fill-rule="evenodd" clip-rule="evenodd" fill="#DDDCDC" d="M1840.652,1056.41c0-1.332,0-2.666,0-4
			c9.213-2.652,9.655,9.34,11,14c30.688,106.354,66.26,212.154,96,317c-31.611-102.535-64.928-208.336-96-312
			c-1.756-5.855-1.353-15.666-9-18C1841.793,1054.217,1842.058,1056.15,1840.652,1056.41z"/>
		<path fill-rule="evenodd" clip-rule="evenodd" fill="#DDDCDC" d="M1840.652,1057.41c-48.783,161.881-97.952,323.389-148,484
			c-61.667,0-123.333,0-185,0c-63.436-182.902-124.711-367.949-187-552c63.875,181.783,124.03,367.307,187,550
			c59.003,2.332,122.331,0.336,183,1c15.156-38.934,25.949-79.645,38-120c36.292-121.541,75.638-241.965,111-363
			C1839.986,1057.41,1840.318,1057.41,1840.652,1057.41z"/>
		<path fill-rule="evenodd" clip-rule="evenodd" fill="#FFFFFF" d="M1320.652,989.41c-0.824-3.508-2.648-6.018-3-10
			c-16.604-55.732-38.863-111.133-54-165c60.667,0,121.333,0,182,0c6.873,15.461,10.123,34.545,17,50c0,0.334,0,0.666,0,1
			c9.499,32.502,18.562,65.439,30,96c0,0.334,0,0.668,0,1c10.134,36.533,20.958,72.375,33,107c0,0.334,0,0.668,0,1
			c20.513,68.488,40.874,137.125,63,204c0,0.334,0,0.668,0,1c3.184,10.484,4.356,22.977,11,30c8.923-14.113,12.695-31.887,18-49
			c5.313-17.137,10.407-34.807,15-52c0-0.332,0-0.666,0-1c0.334,0,0.666,0,1,0c5.621-20.713,12.696-39.971,18-61
			c0-0.332,0-0.666,0-1c0.334,0,0.666,0,1,0c2.727-12.273,7.58-22.42,10-35c0-0.332,0-0.666,0-1c0.334,0,0.666,0,1,0
			c2.727-12.273,7.58-22.42,10-35c0-0.332,0-0.666,0-1c0.334,0,0.666,0,1,0c26.308-85.025,50.722-171.945,79-255
			c60.667,0,121.332,0,182,0c35.17,108.496,66.595,220.74,102,329c0,0.334,0,0.668,0,1c6.648,24.352,13.57,48.43,22,71
			c0,0.334,0,0.668,0,1c2.668,11.793,6.355,23.199,10,35c3.515,11.381,10.318,23.771,10,35c-0.234,8.273-7.513,20.613-11,31
			c-24.047,71.631-48.998,150.621-74,218c-5.613-17.721-10.141-36.525-17-53c0-0.332,0-0.666,0-1c-9.344-32.988-18.653-66.014-30-97
			c0-0.332,0-0.666,0-1c-29.74-104.846-65.313-210.646-96-317c-1.345-4.66-1.787-16.652-11-14c0,1.334,0,2.668,0,4
			c0,0.334,0,0.668,0,1c-0.334,0-0.666,0-1,0c-35.362,121.035-74.708,241.459-111,363c-12.051,40.355-22.844,81.066-38,120
			c-60.669-0.664-123.997,1.332-183-1C1444.683,1356.717,1384.527,1171.193,1320.652,989.41z"/>
		<path fill-rule="evenodd" clip-rule="evenodd" fill="#DDDCDC" d="M1462.652,864.41c-6.877-15.455-10.127-34.539-17-50
			c-60.667,0-121.333,0-182,0c15.137,53.867,37.396,109.268,54,165c-19.321-54.346-37.662-109.672-56-165
			c59.669-2.33,123.665-0.334,185-1C1452.563,829.834,1457.879,846.852,1462.652,864.41z"/>
		<path fill-rule="evenodd" clip-rule="evenodd" fill="#DDDCDC" d="M3201.652,1204.41c-10.479,95.855-62.905,149.764-145,174
			C3137.652,1353.078,3189.675,1298.766,3201.652,1204.41z"/>
		<path fill-rule="evenodd" clip-rule="evenodd" fill="#DDDCDC" d="M3055.652,1378.41c-54.551,13.025-124.371,8-190,8
			c-66.651,0-134.642,0.822-197-1c-1.666-136.666-1.666-280.334,0-417c61.476-1.826,126.836-0.996,192-1
			c64.975-0.004,131.223-5.857,185,8c98.542,25.393,163.381,99.115,156,228c0-13.666,0-27.332,0-41
			c-12.463-109.027-72.456-170.367-175-189c-53.604-9.74-115.131-5-177-5c-60.325,0-122.032-0.826-180,1
			c-1.666,136-1.666,279.002,0,415c54.465,1.828,112.002,0.996,170,1C2914.298,1385.416,2994.17,1389.779,3055.652,1378.41z"/>
		<path fill-rule="evenodd" clip-rule="evenodd" fill="#BBB9B9" d="M3055.652,1378.41c-61.482,11.369-141.354,7.006-216,7
			c-57.998-0.004-115.535,0.828-170-1c-1.666-135.998-1.666-279,0-415c57.968-1.826,119.675-1,180-1c61.869,0,123.396-4.74,177,5
			c102.544,18.633,162.537,79.973,175,189c0,13.668,0,27.334,0,41c0,0.334,0,0.668,0,1c-11.978,94.355-64,148.668-145,174
			C3056.319,1378.41,3055.985,1378.41,3055.652,1378.41z M2848.652,1384.41c61.406,0,122.094,4.119,177-2
			c52.959-5.9,92.111-29.111,121-58c29.813-29.814,50.68-71.242,54-126c7.986-131.707-71.689-207.033-177-225
			c-53.796-9.178-115.286-3.996-175-4c-60.338-0.004-120.52-0.822-178,1c-1.666,135.334-1.666,277.666,0,413
			C2730.42,1385.244,2790.152,1384.41,2848.652,1384.41z"/>
	</g>
</g>
<g id="Capa_1_copia">
	<circle fill-rule="evenodd" clip-rule="evenodd" fill="#BCBCBB" cx="306" cy="390.078" r="262.614"/>
</g>
<g id="Capa_1_copia_2">
	<g>
		<path fill-rule="evenodd" clip-rule="evenodd" fill="#DDDCDC" d="M451.616,171.345"/>
		<path fill-rule="evenodd" clip-rule="evenodd" fill="#1A1717" d="M135.046,557.374c0-19.39,0-38.779,0-58.168
			c-19.184-27.241-34.379-57.964-37.259-100.683c-3.09-45.821,9.716-82.168,26.28-110.494c8.45-14.45,18.941-27.099,30.251-38.778
			c11.334-11.704,24.496-21.721,38.545-30.369c21.855-13.453,45.792-22.837,75.336-28.149c7.428-1.336,14.947-1.973,23.243-2.687
			c12.622-1.086,26.633-0.181,38.662,1.051c28.351,2.904,52.098,11.544,73.001,21.958c27.613,13.758,51.446,33.765,69.38,57.233
			c13.541,17.721,25.114,38.224,32.354,62.605c4.789,16.127,7.943,34.82,7.942,55.364c0,10.019-0.958,20-2.452,29.2
			c-5.838,35.944-20.094,64.195-38.545,87.951c-9.21,11.857-19.675,22.648-31.303,32.003
			c-29.378,23.636-64.845,41.158-111.778,46.487c-4.709,0.534-9.746,0.973-14.834,1.052c-5.06,0.077-10.154,0.46-15.185,0.116
			c-5.165-0.353-10.147-0.476-14.95-0.934c-24.083-2.302-44.198-8.1-63.073-16.003c-5.744-2.404-10.91-4.89-16.236-7.591
			c-1.799-0.913-4.529-0.584-7.242-0.584C176.107,557.957,156.542,557.481,135.046,557.374z"/>
	</g>
</g>
<g id="Capa_1_copia_3">
	
		<ellipse fill-rule="evenodd" clip-rule="evenodd" fill="#64635F" stroke="#000000" stroke-miterlimit="10" cx="6261" cy="2377" rx="0" ry="36"/>
	<line fill-rule="evenodd" clip-rule="evenodd" x1="380.057" y1="359.057" x2="379.939" y2="377.278"/>
	<polyline fill-rule="evenodd" clip-rule="evenodd" fill="#2F98CB" points="379.871,376.392 418.339,376.392 418.339,443.156 
		438.001,443.156 438.001,376.392 476.232,376.392 476.232,358.239 379.871,358.239 	"/>
	<polyline fill-rule="evenodd" clip-rule="evenodd" fill="#FFFFFF" points="221.11,443.228 203.22,386.167 185.836,443.228 
		163.526,443.238 135.22,358.127 156.83,358.138 175.813,414.553 192.695,358.127 214.178,358.127 232.688,421 	"/>
	<polyline fill-rule="evenodd" clip-rule="evenodd" fill="#F8D234" points="230.787,414.756 249.843,358.127 271.452,358.127 
		242.952,443.228 221.11,443.228 	"/>
</g>
<g id="Capa_5">
	<path fill="#FFFFFF" d="M339.213,358.177c-1.105-0.054-2.2-0.064-3.285-0.03h-56.787v85.015h58.143
		c0.139,0,0.275-0.002,0.415-0.004c0.502-0.004,1.008-0.021,1.515-0.049c25.389-1.381,43.221-19.539,43.221-42.9
		S364.602,359.422,339.213,358.177z M338.312,424.511c-0.331,0.022-0.663-0.007-0.99-0.02h-37.857v-48.59h38.848
		c0.145,0,0.29-0.006,0.435,0.004c16.005,1.116,22.662,15.481,22.662,24.651C361.408,410.602,354.985,423.391,338.312,424.511z"/>
	<path fill="#FFFFFF" d="M337.698,443.718v0.003h-0.415C337.422,443.721,337.559,443.721,337.698,443.718z"/>
</g>
</svg>
